<svg xmlns="http://www.w3.org/2000/svg" width="256" height="256" viewBox="380 330 264 264"><defs><filter id="k" width="160%" height="160%" x="-30%" y="-30%"><feDropShadow dx="0" dy="6" flood-color="#3b0e0f" flood-opacity=".8" stdDeviation="5"/><feDropShadow dx="0" dy="-2" flood-color="#fff" flood-opacity=".28" stdDeviation="2"/></filter><filter id="n" width="170%" height="170%" x="-35%" y="-35%"><feDropShadow dx="0" dy="7" flood-color="#3c1112" flood-opacity=".45" stdDeviation="5"/></filter><linearGradient id="l" x1="0%" x2="100%" y1="0%" y2="100%"><stop offset="0%" stop-color="#b83b3e"/><stop offset="48%" stop-color="#94262a"/><stop offset="100%" stop-color="#5d1317"/></linearGradient><linearGradient id="m" x1="0%" x2="100%" y1="0%" y2="100%"><stop offset="0%" stop-color="#d45759"/><stop offset="100%" stop-color="#7b1b20"/></linearGradient><linearGradient id="p" x1="42%" x2="58%" y1="0%" y2="100%"><stop offset="0%" stop-color="#fff7f0"/><stop offset="45%" stop-color="#f5caca"/><stop offset="100%" stop-color="#d75f63"/></linearGradient><linearGradient id="q" x1="0%" x2="100%" y1="0%" y2="100%"><stop offset="0%" stop-color="#dd7779"/><stop offset="100%" stop-color="#8d2226"/></linearGradient><clipPath id="o"><path d="M450 385h52c41 0 74 32 74 77s-33 77-74 77h-52Z"/></clipPath></defs><g filter="url(#k)"><path fill="url(#l)" d="M452 343h62c62 0 103 48 103 119s-41 119-103 119h-62c-25 0-45-20-45-45V388c0-25 20-45 45-45"/><path fill="none" stroke="url(#m)" stroke-width="7" d="M457 360h55c53 0 88 42 88 102s-35 102-88 102h-55c-17 0-31-14-31-31V391c0-17 14-31 31-31Z" opacity=".46"/><path fill="#c9474a" d="M440 377c0-8 8-15 17-15h55c48 0 79 35 88 84-23-21-53-32-89-32h-71Z" opacity=".62"/><path fill="#641619" d="M426 467c20 48 53 81 91 81 42 0 72-32 81-75-8 56-41 91-88 91h-53c-17 0-31-14-31-30Z" opacity=".48"/><path fill="none" stroke="#dc6264" stroke-linecap="round" stroke-width="4" d="M521 362c48 7 81 45 81 100 0 54-33 93-81 100" opacity=".28"/></g><g filter="url(#n)"><path fill="#f3c2c2" stroke="#fff" stroke-opacity=".5" stroke-width="2" d="M450 385h52c41 0 74 32 74 77s-33 77-74 77h-52Z"/><g clip-path="url(#o)"><path fill="#fff8f2" d="M450 385h33l-5 77h-28z"/><path fill="#f9d4d4" d="M483 385h29l-5 77h-29z"/><path fill="#dc7577" d="m512 385 64 77h-69z"/><path fill="url(#p)" d="m478 462 29-71 36 71-36 71z" opacity=".95"/><path fill="#e69697" d="M450 462h28l29 77h-57z"/><path fill="#f0bbbb" d="m478 462 29 77 36-77z"/><path fill="url(#q)" d="M543 462h33l-69 77z"/><path fill="#98262a" d="M543 462h33c-3 36-29 70-69 77Z" opacity=".68"/><path fill="#fff" d="M483 385h29l31 77-36-71z" opacity=".38"/></g><g fill="none" stroke="#fff" stroke-width="1.25" clip-path="url(#o)" opacity=".25"><path d="m478 462 29-71 36 71-36 77ZM450 462h126M483 385l-5 77M512 385l31 77"/></g></g></svg>